<?xml version="1.0" standalone="no"?>
<!DOCTYPE svg PUBLIC "-//W3C//DTD SVG 20010904//EN"
 "http://www.w3.org/TR/2001/REC-SVG-20010904/DTD/svg10.dtd">
<svg version="1.0" xmlns="http://www.w3.org/2000/svg"
 width="55.000000pt" height="180.000000pt" viewBox="0 0 180.000000 180.000000"
 preserveAspectRatio="xMidYMid meet">

<g transform="translate(0.000000,180.000000) scale(0.100000,-0.100000)"
fill="#000000" stroke="none">
<path d="M0 900 l0 -900 900 0 900 0 0 900 0 900 -900 0 -900 0 0 -900z m1738
3 l-3 -838 -835 0 -835 0 -3 838 -2 837 840 0 840 0 -2 -837z"/>
<path d="M1220 1470 c-27 -6 -12 -8 60 -8 100 1 220 -10 220 -21 0 -3 -66 -6
-147 -6 -124 0 -163 -4 -238 -24 -49 -13 -107 -35 -127 -48 -20 -14 -42 -22
-47 -18 -6 3 -11 -2 -11 -13 0 -28 39 -33 114 -15 33 8 69 12 78 9 10 -2 21 0
24 5 9 15 24 10 24 -9 0 -10 -18 -38 -40 -62 -38 -41 -54 -82 -48 -125 3 -27
-13 -155 -23 -182 -4 -12 -26 -34 -49 -49 -33 -22 -43 -24 -55 -14 -13 10 -15
9 -15 -8 0 -12 13 -28 35 -41 40 -23 38 -12 37 -211 l0 -125 9 115 c5 63 9
134 9 158 1 29 4 40 12 36 8 -5 9 -54 4 -168 -6 -130 -10 -164 -24 -179 -24
-26 -66 -47 -97 -47 -14 0 -25 -4 -25 -10 0 -12 54 -40 78 -40 11 0 25 -6 31
-14 7 -8 23 -17 38 -21 21 -5 32 0 58 29 18 20 42 36 53 36 35 0 264 69 327
99 33 15 75 41 94 56 31 27 33 31 29 82 -3 38 -11 61 -29 79 -28 31 -123 76
-259 124 -52 18 -102 39 -110 47 -13 13 -11 17 15 39 17 13 62 41 100 61 86
45 262 163 292 195 27 29 53 89 53 122 0 63 -51 136 -95 136 -9 0 -26 7 -40
16 -28 18 -257 29 -315 14z m227 -151 c18 -6 41 -22 52 -37 11 -15 21 -21 21
-14 0 25 20 11 20 -15 0 -40 -95 -126 -222 -200 -109 -65 -158 -82 -124 -44
11 12 13 20 6 23 -8 2 -8 19 0 63 6 33 15 86 19 118 13 83 29 116 60 123 14 3
30 7 36 8 13 3 92 -12 132 -25z m-175 -569 c93 -31 163 -63 173 -79 3 -6 12
-8 20 -4 30 11 17 -44 -15 -67 -43 -31 -204 -100 -270 -116 -70 -17 -70 -17
-70 1 0 14 14 19 70 28 14 3 7 5 -18 6 l-42 1 6 58 c15 149 29 202 53 202 3 0
45 -13 93 -30z"/>
<path d="M680 1460 c14 -4 37 -8 53 -9 52 -2 27 -19 -35 -23 -72 -4 -160 -41
-217 -89 -109 -92 -158 -151 -203 -247 -67 -142 -82 -194 -83 -297 -2 -108 -3
-114 -14 -97 -5 8 -8 65 -7 128 1 62 1 113 0 111 -11 -12 -20 -147 -14 -207
19 -190 103 -287 283 -324 118 -25 211 1 381 104 91 54 96 67 55 120 l-19 25
0 -27 c0 -66 -249 -181 -349 -161 -34 6 -30 8 49 24 80 16 82 17 24 12 -111
-10 -179 31 -235 140 -44 85 -46 188 -7 347 34 140 163 302 262 330 92 26 163
8 173 -44 l7 -31 12 29 c10 27 12 28 18 9 8 -25 -8 -71 -36 -100 -22 -23 -68
-193 -68 -250 0 -17 -4 -35 -10 -38 -6 -4 -10 19 -10 61 0 88 -11 76 -15 -18
-3 -49 0 -75 8 -80 17 -11 75 -10 96 2 27 14 77 150 97 258 29 167 11 296 -47
322 -7 4 -24 12 -36 18 -13 7 -49 12 -80 11 -44 -1 -52 -3 -33 -9z"/>
<path d="M1148 1453 c6 -2 18 -2 25 0 6 3 1 5 -13 5 -14 0 -19 -2 -12 -5z"/>
<path d="M1038 1423 c7 -3 16 -2 19 1 4 3 -2 6 -13 5 -11 0 -14 -3 -6 -6z"/>
<path d="M1050 1200 c-1 -14 -3 -45 -4 -70 -1 -25 -5 -72 -8 -105 -9 -75 -2
-54 15 45 6 41 9 93 6 115 -5 29 -7 33 -9 15z"/>
<path d="M702 1090 c0 -14 2 -19 5 -12 2 6 2 18 0 25 -3 6 -5 1 -5 -13z"/>
<path d="M691 1044 c0 -11 3 -14 6 -6 3 7 2 16 -1 19 -3 4 -6 -2 -5 -13z"/>
<path d="M192 990 c0 -14 2 -19 5 -12 2 6 2 18 0 25 -3 6 -5 1 -5 -13z"/>
</g>
</svg>
